<svg width="50" height="50" viewBox="0 0 28 29" fill="none" xmlns="http://www.w3.org/2000/svg">
<path d="M24.937 0.968872H3.06201C2.48185 0.968872 1.92545 1.19934 1.51522 1.60958C1.10498 2.01981 0.874512 2.57621 0.874512 3.15637V11.1913C0.874512 23.4427 11.2405 27.5073 13.3159 28.1978C13.7592 28.3485 14.2398 28.3485 14.6831 28.1978C16.7612 27.5073 27.1245 23.4427 27.1245 11.1913V3.15637C27.1245 2.57621 26.894 2.01981 26.4838 1.60958C26.0736 1.19934 25.5172 0.968872 24.937 0.968872ZM20.2421 10.4927L12.5858 18.149C12.4843 18.2506 12.3636 18.3313 12.2309 18.3864C12.0981 18.4414 11.9557 18.4697 11.812 18.4697C11.6683 18.4697 11.5259 18.4414 11.3932 18.3864C11.2604 18.3313 11.1398 18.2506 11.0382 18.149L7.75693 14.8677C7.5517 14.6625 7.4364 14.3841 7.4364 14.0939C7.4364 13.8036 7.5517 13.5253 7.75693 13.32C7.96216 13.1148 8.24052 12.9995 8.53076 12.9995C8.821 12.9995 9.09936 13.1148 9.30459 13.32L11.812 15.8275L18.6944 8.94504C18.7961 8.84342 18.9167 8.76281 19.0495 8.70782C19.1822 8.65282 19.3245 8.62451 19.4683 8.62451C19.612 8.62451 19.7543 8.65282 19.8871 8.70782C20.0198 8.76281 20.1405 8.84342 20.2421 8.94504C20.3437 9.04666 20.4243 9.1673 20.4793 9.30008C20.5343 9.43285 20.5626 9.57516 20.5626 9.71887C20.5626 9.86259 20.5343 10.0049 20.4793 10.1377C20.4243 10.2704 20.3437 10.3911 20.2421 10.4927Z" fill="#7B1FA2"/>
</svg>
