<svg width="50" height="50" viewBox="0 0 50 50" fill="none" xmlns="http://www.w3.org/2000/svg">
<path d="M29.1666 8.33325H20.8333C12.9765 8.33325 9.04819 8.33325 6.6074 10.774C4.85003 12.5314 4.35799 15.06 4.22021 19.2708H45.7798C45.642 15.06 45.15 12.5314 43.3925 10.774C40.9518 8.33325 37.0233 8.33325 29.1666 8.33325Z" fill="#7B1FA2"/>
<path d="M20.8332 41.6666H29.1665C37.0232 41.6666 40.9517 41.6666 43.3923 39.2258C45.8332 36.7851 45.8332 32.8566 45.8332 24.9999C45.8332 24.0793 45.8332 23.2124 45.8292 22.3958H4.17044C4.1665 23.2124 4.1665 24.0793 4.1665 24.9999C4.1665 32.8566 4.1665 36.7851 6.60727 39.2258C9.04807 41.6666 12.9764 41.6666 20.8332 41.6666Z" fill="#7B1FA2"/>
<path fill-rule="evenodd" clip-rule="evenodd" d="M10.9375 33.3333C10.9375 32.4703 11.6371 31.7708 12.5 31.7708H20.8333C21.6962 31.7708 22.3958 32.4703 22.3958 33.3333C22.3958 34.1962 21.6962 34.8958 20.8333 34.8958H12.5C11.6371 34.8958 10.9375 34.1962 10.9375 33.3333Z" fill="white"/>
<path fill-rule="evenodd" clip-rule="evenodd" d="M24.479 33.3333C24.479 32.4703 25.1786 31.7708 26.0415 31.7708H29.1665C30.0294 31.7708 30.729 32.4703 30.729 33.3333C30.729 34.1962 30.0294 34.8958 29.1665 34.8958H26.0415C25.1786 34.8958 24.479 34.1962 24.479 33.3333Z" fill="white"/>
</svg>
