<svg width="50" height="50" viewBox="0 0 50 50" fill="none" xmlns="http://www.w3.org/2000/svg">
<path fill-rule="evenodd" clip-rule="evenodd" d="M7.21748 7.21773C4.1665 10.2687 4.1665 15.1791 4.1665 25.0001C4.1665 34.8209 4.1665 39.7315 7.21748 42.7824C10.2684 45.8334 15.1789 45.8334 24.9998 45.8334C34.8207 45.8334 39.7313 45.8334 42.7821 42.7824C45.8332 39.7315 45.8332 34.8209 45.8332 25.0001C45.8332 15.1791 45.8332 10.2687 42.7821 7.21773C39.7313 4.16675 34.8207 4.16675 24.9998 4.16675C15.1789 4.16675 10.2684 4.16675 7.21748 7.21773ZM35.4165 25.5209C36.2794 25.5209 36.979 26.2205 36.979 27.0834V37.5001C36.979 38.363 36.2794 39.0626 35.4165 39.0626C34.5536 39.0626 33.854 38.363 33.854 37.5001V27.0834C33.854 26.2205 34.5536 25.5209 35.4165 25.5209ZM26.5623 12.5001C26.5623 11.6371 25.8628 10.9376 24.9998 10.9376C24.1369 10.9376 23.4373 11.6371 23.4373 12.5001V37.5001C23.4373 38.363 24.1369 39.0626 24.9998 39.0626C25.8628 39.0626 26.5623 38.363 26.5623 37.5001V12.5001ZM14.5832 17.1876C15.4461 17.1876 16.1457 17.8871 16.1457 18.7501V37.5001C16.1457 38.363 15.4461 39.0626 14.5832 39.0626C13.7202 39.0626 13.0207 38.363 13.0207 37.5001V18.7501C13.0207 17.8871 13.7202 17.1876 14.5832 17.1876Z" fill="#7B1FA2"/>
</svg>
