<svg width="50" height="50" viewBox="0 0 50 50" fill="none" xmlns="http://www.w3.org/2000/svg">
    <path fill-rule="evenodd" clip-rule="evenodd" d="M14.5832 5.72925C11.2186 5.72925 8.17619 6.57014 5.96788 8.62071C3.73863 10.6907 2.604 13.7648 2.604 17.7084V32.2917C2.604 36.2355 3.73863 39.3095 5.96788 41.3795C8.17619 43.4301 11.2186 44.2709 14.5832 44.2709H35.4165C38.7811 44.2709 41.8236 43.4301 44.0317 41.3795C46.2611 39.3095 47.3957 36.2355 47.3957 32.2917V17.7084C47.3957 13.7648 46.2611 10.6907 44.0317 8.62071C41.8236 6.57014 38.7811 5.72925 35.4165 5.72925H14.5832ZM40.0592 17.4215C40.7419 16.8939 40.8678 15.9126 40.34 15.2298C39.8125 14.5469 38.8313 14.4211 38.1484 14.9488L26.5919 23.8784C25.6542 24.6032 24.3453 24.6032 23.4073 23.8784L11.8511 14.9488C11.1682 14.4211 10.187 14.5469 9.65932 15.2298C9.13167 15.9126 9.25748 16.8939 9.94034 17.4215L21.4967 26.3513C23.56 27.9455 26.4394 27.9455 28.5028 26.3513L40.0592 17.4215Z" fill="#7B1FA2"/>
</svg>