<svg width="50" height="50" viewBox="0 0 50 50" fill="none" xmlns="http://www.w3.org/2000/svg">
<path d="M33.3332 8.85425C33.3332 11.4376 31.229 13.5417 28.6457 13.5417H21.354C20.0623 13.5417 18.8957 13.0209 18.0415 12.1667C17.1873 11.3126 16.6665 10.1459 16.6665 8.85425C16.6665 6.27091 18.7707 4.16675 21.354 4.16675H28.6457C29.9373 4.16675 31.104 4.68758 31.9582 5.54175C32.8123 6.39591 33.3332 7.56258 33.3332 8.85425Z" fill="#7B1FA2"/>
<path d="M39.2293 10.4765C38.7502 10.0806 38.2085 9.76813 37.6252 9.53896C37.021 9.3098 36.4168 9.78896 36.2918 10.414C35.5835 13.9765 32.4377 16.664 28.646 16.664H21.3543C19.271 16.664 17.3127 15.8515 15.8335 14.3723C14.7502 13.289 14.0002 11.914 13.7085 10.4348C13.5835 9.8098 12.9585 9.3098 12.3543 9.5598C9.93766 10.539 8.3335 12.7473 8.3335 17.1848V37.4972C8.3335 43.7472 12.0627 45.8305 16.6668 45.8305H33.3335C37.9377 45.8305 41.6668 43.7472 41.6668 37.4972V17.1848C41.6668 13.789 40.7293 11.7056 39.2293 10.4765ZM16.6668 25.518H25.0002C25.8543 25.518 26.5627 26.2264 26.5627 27.0805C26.5627 27.9347 25.8543 28.643 25.0002 28.643H16.6668C15.8127 28.643 15.1043 27.9347 15.1043 27.0805C15.1043 26.2264 15.8127 25.518 16.6668 25.518ZM33.3335 36.9764H16.6668C15.8127 36.9764 15.1043 36.268 15.1043 35.4139C15.1043 34.5597 15.8127 33.8514 16.6668 33.8514H33.3335C34.1877 33.8514 34.896 34.5597 34.896 35.4139C34.896 36.268 34.1877 36.9764 33.3335 36.9764Z" fill="#7B1FA2"/>
</svg>
