<svg width="36" height="36" viewBox="0 0 36 36" fill="none" xmlns="http://www.w3.org/2000/svg">
<g clip-path="url(#clip0_2388_546)">
<path fill-rule="evenodd" clip-rule="evenodd" d="M29.6659 6.64464C31.2978 5.95753 33.0472 7.33743 32.7591 9.08446L29.3557 29.7195C29.0275 31.7091 26.8423 32.8508 25.017 31.8593C23.4895 31.0296 21.2233 29.7527 19.1809 28.4181C18.1611 27.7517 15.0382 25.6148 15.4221 24.0936C15.7503 22.793 21.0001 17.9061 24.0001 14.9999C25.1785 13.8583 24.6418 13.1988 23.2501 14.2499C19.7977 16.8573 14.255 20.8217 12.422 21.9374C10.8048 22.9217 9.96046 23.0897 8.95328 22.9217C7.11409 22.6152 5.40893 22.1406 4.01681 21.5636C2.13526 20.7836 2.22691 18.1979 4.01554 17.4449L29.6659 6.64464Z" fill="#616161"/>
</g>
<defs>
<clipPath id="clip0_2388_546">
<rect width="36" height="36" fill="white"/>
</clipPath>
</defs>
</svg>
