<svg width="52" height="32" viewBox="0 0 52 32" fill="none" xmlns="http://www.w3.org/2000/svg">
<path d="M13.0934 31.584C12.8781 32.0722 12.1791 32.0722 11.9639 31.584L0.0522023 4.56869C-0.125625 4.16538 0.172682 3.71383 0.616945 3.71383H24.4403C24.8846 3.71383 25.1829 4.16538 25.005 4.56869L13.0934 31.584Z" fill="#7B1FA2"/>
<path d="M20.8063 32H14.3467C13.9016 32 13.6032 31.5468 13.7827 31.1433L27.4744 0.36431C27.5729 0.142897 27.7941 0 28.0383 0H34.5384C34.9838 0 35.2821 0.453701 35.1021 0.857285L21.37 31.6363C21.2713 31.8574 21.0503 32 20.8063 32Z" fill="#7B1FA2"/>
<path d="M37.6509 32H31.1913C30.7462 32 30.4479 31.5468 30.6274 31.1433L44.319 0.36431C44.4175 0.142897 44.6387 0 44.883 0H51.383C51.8285 0 52.1268 0.453701 51.9467 0.857285L38.2146 31.6363C38.116 31.8574 37.8949 32 37.6509 32Z" fill="#7B1FA2"/>
<path d="M29.2286 32H22.769C22.3239 32 22.0256 31.5468 22.2051 31.1433L35.8967 0.36431C35.9952 0.142897 36.2164 0 36.4607 0H42.9607C43.4061 0 43.7045 0.453701 43.5244 0.857285L29.7923 31.6363C29.6937 31.8574 29.4726 32 29.2286 32Z" fill="#7B1FA2"/>
</svg>
